<!-- icon666.com - MILLIONS vector ICONS FREE --><svg viewBox="0 -74 512.00255 512" xmlns="http://www.w3.org/2000/svg"><path d="m505.261719 182.019531c0 96.507813-78.238281 174.742188-174.742188 174.742188-96.507812 0-174.742187-78.234375-174.742187-174.742188 0-96.507812 78.234375-174.742187 174.742187-174.742187 96.503907 0 174.742188 78.234375 174.742188 174.742187zm0 0" fill="#c65c38"></path><path d="m281.117188 14.371094c-72.449219 21.3125-125.34375 88.300781-125.34375 167.648437 0 79.472657 53.058593 146.546875 125.683593 167.75 13.996094-8.300781 27.042969-18.414062 38.832031-30.238281 36.691407-36.796875 56.875-85.679688 56.839844-137.648438-.046875-70.949218-38.691406-133.496093-96.011718-167.511718zm0 0" fill="#9c2d20"></path><path d="m184.445312 7.289062c-23.09375-.269531-45.164062 3.953126-65.410156 11.832032-1.691406.660156-2.671875 2.480468-2.246094 4.242187 3.460938 14.246094-2.824218 29.117188-15.632812 36.539063-1.050781.605468-1.59375 1.835937-1.292969 3.011718 8.417969 33.144532-20.457031 63.960938-54.148437 57.550782-.996094-.1875-1.984375.25-2.53125 1.105468-5.890625 9.230469-16.214844 15.351563-27.96875 15.351563-.007813 0-.011719 0-.019532 0-.976562 0-1.847656.625-2.089843 1.574219-28.558594 111.34375 56.628906 218.542968 169.699219 218.265625 96.351562-.234375 174.371093-78.445313 174.308593-174.863281-.066406-95.246094-77.429687-173.5-172.667969-174.609376zm0 0" fill="#c65c38"></path><g fill="#9c2d20"><path d="m34.847656 130.480469c-5.496094 4.050781-12.285156 6.441406-19.632812 6.441406-.007813 0-.011719 0-.019532 0-.976562 0-1.847656.625-2.089843 1.574219-28.554688 111.34375 56.632812 218.539062 169.703125 218.265625 3.109375-.007813 6.199218-.101563 9.269531-.269531-112.976563-6.1875-190.988281-117.445313-157.230469-226.011719zm0 0"></path><path d="m274.058594 89.542969c0 13.910156-11.277344 25.191406-25.1875 25.191406-13.914063 0-25.191406-11.28125-25.191406-25.191406 0-13.910157 11.277343-25.1875 25.191406-25.1875 13.910156 0 25.1875 11.277343 25.1875 25.1875zm0 0"></path><path d="m223.683594 208.773438c0 17.621093-14.285156 31.90625-31.910156 31.90625-17.621094 0-31.90625-14.285157-31.90625-31.90625 0-17.621094 14.285156-31.90625 31.90625-31.90625 17.625 0 31.910156 14.285156 31.910156 31.90625zm0 0"></path></g><path d="m243.699219 89.542969c0-10.355469 6.25-19.246094 15.179687-23.117188-3.066406-1.328125-6.453125-2.070312-10.007812-2.070312-13.914063 0-25.191406 11.277343-25.191406 25.1875 0 13.910156 11.277343 25.191406 25.191406 25.191406 3.554687 0 6.941406-.742187 10.007812-2.074219-8.929687-3.871094-15.179687-12.761718-15.179687-23.117187zm0 0" fill="#8c271f"></path><path d="m179.886719 208.773438c0-14.125 9.183593-26.097657 21.898437-30.296876-3.148437-1.039062-6.511718-1.609374-10.011718-1.609374-17.621094 0-31.90625 14.285156-31.90625 31.90625 0 17.621093 14.285156 31.90625 31.90625 31.90625 3.5 0 6.863281-.570313 10.011718-1.609376-12.71875-4.199218-21.898437-16.171874-21.898437-30.296874zm0 0" fill="#8c271f"></path><path d="m8.292969 197.207031c3.007812 34.914063 16.269531 66.894531 36.773437 92.902344 18.546875-7.296875 31.679688-25.355469 31.679688-46.492187-.003906-35.332032-35.71875-59.464844-68.453125-46.410157zm0 0" fill="#9c2d20"></path><path d="m58.566406 282.140625c-17.773437-25.375-28.972656-55.683594-31.128906-88.464844-6.707031-.089843-13.113281 1.128907-19.144531 3.53125 2.839843 32.683594 14.992187 65.054688 36.953125 92.828125 4.863281-1.9375 9.347656-4.617187 13.320312-7.894531zm0 0" fill="#8c271f"></path><path d="m286.65625 209.613281c0 28.535157 22.597656 51.78125 50.871094 52.847657 12.507812-24.078126 19.585937-51.433594 19.585937-80.441407 0-7.730469-.507812-15.34375-1.480469-22.808593-5.074218-1.613282-10.472656-2.496094-16.082031-2.496094-29.214843 0-52.894531 23.683594-52.894531 52.898437zm0 0" fill="#9c2d20"></path><path d="m306.675781 209.613281c0-25.796875 18.464844-47.265625 42.894531-51.941406-3.242187-.625-6.589843-.957031-10.019531-.957031-29.214843 0-52.898437 23.683594-52.898437 52.898437 0 28.535157 22.597656 51.78125 50.875 52.847657.671875-1.296876 1.320312-2.605469 1.960937-3.917969-19.25-7.90625-32.8125-26.828125-32.8125-48.929688zm0 0" fill="#8c271f"></path><path d="m423.585938 127.789062c20.175781 20.179688 52.59375 20.636719 73.339843 1.398438-8.179687-25.871094-22.519531-50.21875-43.03125-70.730469-5.464843-5.464843-11.207031-10.488281-17.171875-15.078125-31.816406 16.433594-38.4375 59.113282-13.136718 84.410156zm0 0" fill="#9c2d20"></path><path d="m445.964844 51.015625c-3.015625-2.664063-6.097656-5.214844-9.246094-7.640625-31.8125 16.4375-38.433594 59.117188-13.132812 84.414062 12.917968 12.917969 30.847656 17.738282 47.527343 14.496094-42.488281-8.269531-57.78125-61.964844-25.148437-91.269531zm0 0" fill="#8c271f"></path><path d="m249.015625 57.105469c-18.03125 0-32.699219 14.667969-32.699219 32.695312 0 18.03125 14.667969 32.695313 32.699219 32.695313 18.027344 0 32.695313-14.664063 32.695313-32.695313 0-18.027343-14.667969-32.695312-32.695313-32.695312zm0 50.378906c-9.75 0-17.683594-7.933594-17.683594-17.683594s7.933594-17.679687 17.683594-17.679687 17.679687 7.929687 17.679687 17.679687-7.929687 17.683594-17.679687 17.683594zm0 0"></path><path d="m191.917969 169.617188c-21.734375 0-39.414063 17.679687-39.414063 39.414062s17.679688 39.414062 39.414063 39.414062 39.414062-17.683593 39.414062-39.414062-17.679687-39.414062-39.414062-39.414062zm0 63.8125c-13.453125 0-24.398438-10.945313-24.398438-24.398438s10.945313-24.398438 24.398438-24.398438 24.398437 10.945313 24.398437 24.398438-10.941406 24.398438-24.398437 24.398438zm0 0"></path><path d="m116.203125 151.664062c-2.933594-2.933593-7.6875-2.933593-10.617187 0l-9.445313 9.445313c-2.933594 2.933594-2.933594 7.6875 0 10.617187 2.929687 2.929688 7.683594 2.933594 10.617187 0l9.445313-9.445312c2.929687-2.933594 2.929687-7.683594 0-10.617188zm0 0"></path><path d="m137.625 284.457031-8.75-6.847656c-3.265625-2.554687-7.980469-1.980469-10.539062 1.285156-2.554688 3.265625-1.980469 7.984375 1.285156 10.539063l8.753906 6.847656c3.265625 2.554688 7.980469 1.980469 10.535156-1.285156 2.558594-3.265625 1.980469-7.984375-1.285156-10.539063zm0 0"></path><path d="m215.351562 273.59375-13.226562 6.296875c-3.742188 1.78125-5.332031 6.261719-3.550781 10.003906 1.78125 3.742188 6.257812 5.335938 10.007812 3.550781l13.222657-6.296874c3.742187-1.78125 5.332031-6.261719 3.550781-10.003907-1.78125-3.746093-6.261719-5.332031-10.003907-3.550781zm0 0"></path><path d="m164.191406 70.847656c3.445313-2.304687 4.367188-6.96875 2.058594-10.414062l-8.1875-12.21875c-2.308594-3.445313-6.972656-4.367188-10.414062-2.058594-3.445313 2.304688-4.367188 6.96875-2.058594 10.414062l8.1875 12.21875c2.308594 3.449219 6.972656 4.367188 10.414062 2.058594zm0 0"></path><path d="m370.988281 286.269531-11.03125 1.34375c-4.113281.503907-7.042969 4.246094-6.542969 8.363281.464844 3.808594 3.703126 6.597657 7.445313 6.597657.300781 0 .609375-.019531.917969-.054688l11.03125-1.34375c4.113281-.503906 7.042968-4.246093 6.542968-8.363281-.503906-4.117188-4.238281-7.042969-8.363281-6.542969zm0 0"></path><path d="m418.265625 223.628906-4.898437 13.804688c-1.386719 3.90625.65625 8.199218 4.566406 9.585937.828125.292969 1.675781.433594 2.511718.433594 3.085938 0 5.980469-1.921875 7.074219-5l4.898438-13.804687c1.386719-3.90625-.65625-8.195313-4.566407-9.585938-3.90625-1.382812-8.199218.65625-9.585937 4.566406zm0 0"></path><path d="m317.410156 349c-14.835937-1.15625-29.289062-4.234375-43.152344-9.175781 120.699219-70.554688 120.410157-244.878907-.046874-315.070313 50.011718-17.820312 105.632812-10.566406 149.316406 18.621094-28.289063 22.527344-30.582032 64.507812-5.105469 89.980469 20.214844 20.21875 50.984375 23.253906 74.386719 8.738281 2.027344 8.179688 3.441406 16.539062 4.210937 25.003906.375 4.128906 4.046875 7.175782 8.152344 6.796875 4.128906-.375 7.171875-4.023437 6.800781-8.152343-7.425781-81.953126-69.261718-149.46875-151.242187-163.199219-35.613281-5.960938-71.644531-1.390625-104.425781 13.214843-45.105469-20.167968-95.625-20.582031-139.847657-3.375-5.199219 2.023438-8.128906 7.617188-6.820312 13.007813 2.730469 11.253906-2.453125 22.683594-12.09375 28.269531-3.953125 2.289063-5.933594 6.960938-4.8125 11.359375 7.101562 27.960938-17.351563 53.679688-45.472657 48.328125-4.027343-.761718-8.054687.984375-10.261718 4.445313-4.746094 7.4375-12.835938 11.882812-21.652344 11.882812-.003906 0-.003906 0-.007812 0-4.425782 0-8.273438 2.964844-9.363282 7.214844-38.109375 148.582031 113.269532 273.105469 250.59375 212.019531 18.886719 8.375 38.941406 13.445313 59.671875 15.058594.199219.015625.398438.023438.59375.023438 3.878907 0 7.167969-2.988282 7.476563-6.921876.324218-4.136718-2.765625-7.75-6.898438-8.070312zm118.777344-296.28125c24.453125 19.921875 42.144531 45.871094 52.109375 74.285156-17.886719 13.445313-43.074219 11.921875-59.257813-4.261718-20.371093-20.375-16.84375-54.226563 7.148438-70.023438zm-103.109375 202.050781c-22.097656-3.191406-38.769531-22.050781-38.769531-44.898437 0-28.578125 26.300781-50.277344 54.5625-44.457032 3.175781 30.988282-2.464844 61.753907-15.792969 89.355469zm-285.359375 26.117188c-16.765625-22.796875-27.65625-49.570313-31.179688-78.175781 26.804688-6.78125 52.839844 13.609374 52.839844 41.164062 0 15.597656-8.339844 29.570312-21.660156 37.011719zm9.53125 11.816406c16.761719-10.34375 27.144531-28.570313 27.144531-48.828125 0-36.210938-33.316406-63.617188-69.019531-56.285156-.460938-14.695313.960938-29.074219 4.207031-43.117188 11.183594-1.152344 21.328125-6.851562 28.15625-15.851562 36.34375 4.648437 67.054688-27.539063 60.300781-63.863282 12.511719-8.789062 19.246094-24.070312 16.863282-39.515624 96.71875-35.527344 201.660156 24.609374 221.617187 124.613281-36.011719-4.074219-67.226562 24.222656-67.226562 60.015625 0 28.546875 19.554687 52.417968 46.28125 58.75-58.164063 96.328125-192.878907 109.445312-268.324219 24.082031zm0 0"></path><path d="m504.976562 193.992188c-4.121093-.460938-7.828124 2.519531-8.28125 6.640624-4.1875 38.164063-20.773437 72.707032-47.964843 99.898438-26.644531 26.644531-60.460938 43.148438-97.785157 47.722656-4.113281.503906-7.042968 4.25-6.535156 8.363282.464844 3.804687 3.703125 6.59375 7.441406 6.59375.304688 0 .613282-.015626.921876-.054688 40.683593-4.984375 77.535156-22.972656 106.578124-52.007812 29.207032-29.210938 47.769532-67.875 52.273438-108.875.449219-4.121094-2.527344-7.832032-6.648438-8.28125zm0 0"></path></svg>